<?xml version="1.0" encoding="UTF-8"?>
<svg xmlns="http://www.w3.org/2000/svg" xmlns:xlink="http://www.w3.org/1999/xlink" width="1404pt" height="1872pt" viewBox="0 0 1404 1872" version="1.1">
<g id="surface1">
<rect x="0" y="0" width="1404" height="1872" style="fill:rgb(100%,100%,100%);fill-opacity:1;stroke:none;"/>
<!-- Title -->

  <g id="breadcrumb">
    <!-- Introduction in bold -->
    <text x="10" y="50" font-family="Verdana" font-size="30">Introduction</text>
    <text x="230" y="50" font-family="Verdana" font-size="30"> - </text>
    
    <!-- Other breadcrumb items -->
    <text x="250" y="50" font-family="Verdana" font-size="30">Objectifs</text>
    <text x="390" y="50" font-family="Verdana" font-size="30"> - </text>

    <text x="410" y="50" font-family="Verdana" font-size="30">Principes</text>
    <text x="550" y="50" font-family="Verdana" font-size="30"> - </text>

    <text x="570" y="50" font-family="Verdana" font-size="30" font-weight="bold">État du business</text>
    <text x="860" y="50" font-family="Verdana" font-size="30"> - </text>

    <text x="880" y="50" font-family="Verdana" font-size="30">Leçons</text>
    <text x="990" y="50" font-family="Verdana" font-size="30"> - </text>

    <text x="1010" y="50" font-family="Verdana" font-size="30">Priorités stratégiques</text>
  </g>


<!-- Textbox with Lorem Ipsum -->
<text x="20" y="90" font-family="Verdana" font-size="30" fill="grey">
Une analyse complète de l'état actuel de l'entreprise est fournie ici,
</text>
<text x="20" y="120" font-family="Verdana" font-size="30" fill="grey">
en se référant à la section des objectifs.
</text>
<text x="20" y="150" font-family="Verdana" font-size="30" fill="grey">
Elle évite le jargon ou une analyse technique extensive pour rester accessible.
</text>
<path style="fill:none;stroke-width:0.5;stroke-linecap:butt;stroke-linejoin:miter;stroke:rgb(0%,0%,0%);stroke-opacity:1;stroke-miterlimit:10;" d="M 0 0 L 1402 0 " transform="matrix(1,0,0,-1,1,206.5)"/>
<path style="fill:none;stroke-width:0.5;stroke-linecap:butt;stroke-linejoin:miter;stroke:rgb(0%,0%,0%);stroke-opacity:1;stroke-miterlimit:10;" d="M 0 0 L 1402 0 " transform="matrix(1,0,0,-1,1,258.5)"/>
<path style="fill:none;stroke-width:0.5;stroke-linecap:butt;stroke-linejoin:miter;stroke:rgb(0%,0%,0%);stroke-opacity:1;stroke-miterlimit:10;" d="M 0 0 L 1402 0 " transform="matrix(1,0,0,-1,1,310.5)"/>
<path style="fill:none;stroke-width:0.5;stroke-linecap:butt;stroke-linejoin:miter;stroke:rgb(0%,0%,0%);stroke-opacity:1;stroke-miterlimit:10;" d="M 0 0 L 1402 0 " transform="matrix(1,0,0,-1,1,362.5)"/>
<path style="fill:none;stroke-width:0.5;stroke-linecap:butt;stroke-linejoin:miter;stroke:rgb(0%,0%,0%);stroke-opacity:1;stroke-miterlimit:10;" d="M 0 0 L 1402 0 " transform="matrix(1,0,0,-1,1,414.5)"/>
<path style="fill:none;stroke-width:0.5;stroke-linecap:butt;stroke-linejoin:miter;stroke:rgb(0%,0%,0%);stroke-opacity:1;stroke-miterlimit:10;" d="M 0 0 L 1402 0 " transform="matrix(1,0,0,-1,1,466.5)"/>
<path style="fill:none;stroke-width:0.5;stroke-linecap:butt;stroke-linejoin:miter;stroke:rgb(0%,0%,0%);stroke-opacity:1;stroke-miterlimit:10;" d="M 0 0 L 1402 0 " transform="matrix(1,0,0,-1,1,518.5)"/>
<path style="fill:none;stroke-width:0.5;stroke-linecap:butt;stroke-linejoin:miter;stroke:rgb(0%,0%,0%);stroke-opacity:1;stroke-miterlimit:10;" d="M 0 0 L 1402 0 " transform="matrix(1,0,0,-1,1,570.5)"/>
<path style="fill:none;stroke-width:0.5;stroke-linecap:butt;stroke-linejoin:miter;stroke:rgb(0%,0%,0%);stroke-opacity:1;stroke-miterlimit:10;" d="M 0 0 L 1402 0 " transform="matrix(1,0,0,-1,1,622.5)"/>
<path style="fill:none;stroke-width:0.5;stroke-linecap:butt;stroke-linejoin:miter;stroke:rgb(0%,0%,0%);stroke-opacity:1;stroke-miterlimit:10;" d="M 0 0 L 1402 0 " transform="matrix(1,0,0,-1,1,674.5)"/>
<path style="fill:none;stroke-width:0.5;stroke-linecap:butt;stroke-linejoin:miter;stroke:rgb(0%,0%,0%);stroke-opacity:1;stroke-miterlimit:10;" d="M 0 0 L 1402 0 " transform="matrix(1,0,0,-1,1,726.5)"/>
<path style="fill:none;stroke-width:0.5;stroke-linecap:butt;stroke-linejoin:miter;stroke:rgb(0%,0%,0%);stroke-opacity:1;stroke-miterlimit:10;" d="M 0 0 L 1402 0 " transform="matrix(1,0,0,-1,1,778.5)"/>
<path style="fill:none;stroke-width:0.5;stroke-linecap:butt;stroke-linejoin:miter;stroke:rgb(0%,0%,0%);stroke-opacity:1;stroke-miterlimit:10;" d="M 0 0 L 1402 0 " transform="matrix(1,0,0,-1,1,830.5)"/>
<path style="fill:none;stroke-width:0.5;stroke-linecap:butt;stroke-linejoin:miter;stroke:rgb(0%,0%,0%);stroke-opacity:1;stroke-miterlimit:10;" d="M 0 0 L 1402 0 " transform="matrix(1,0,0,-1,1,882.5)"/>
<path style="fill:none;stroke-width:0.5;stroke-linecap:butt;stroke-linejoin:miter;stroke:rgb(0%,0%,0%);stroke-opacity:1;stroke-miterlimit:10;" d="M 0 0 L 1402 0 " transform="matrix(1,0,0,-1,1,934.5)"/>
<path style="fill:none;stroke-width:0.5;stroke-linecap:butt;stroke-linejoin:miter;stroke:rgb(0%,0%,0%);stroke-opacity:1;stroke-miterlimit:10;" d="M 0 0 L 1402 0 " transform="matrix(1,0,0,-1,1,986.5)"/>
<path style="fill:none;stroke-width:0.5;stroke-linecap:butt;stroke-linejoin:miter;stroke:rgb(0%,0%,0%);stroke-opacity:1;stroke-miterlimit:10;" d="M 0 0 L 1402 0 " transform="matrix(1,0,0,-1,1,1038.5)"/>
<path style="fill:none;stroke-width:0.5;stroke-linecap:butt;stroke-linejoin:miter;stroke:rgb(0%,0%,0%);stroke-opacity:1;stroke-miterlimit:10;" d="M 0 0 L 1402 0 " transform="matrix(1,0,0,-1,1,1090.5)"/>
<path style="fill:none;stroke-width:0.5;stroke-linecap:butt;stroke-linejoin:miter;stroke:rgb(0%,0%,0%);stroke-opacity:1;stroke-miterlimit:10;" d="M 0 0 L 1402 0 " transform="matrix(1,0,0,-1,1,1142.5)"/>
<path style="fill:none;stroke-width:0.5;stroke-linecap:butt;stroke-linejoin:miter;stroke:rgb(0%,0%,0%);stroke-opacity:1;stroke-miterlimit:10;" d="M 0 0 L 1402 0 " transform="matrix(1,0,0,-1,1,1194.5)"/>
<path style="fill:none;stroke-width:0.5;stroke-linecap:butt;stroke-linejoin:miter;stroke:rgb(0%,0%,0%);stroke-opacity:1;stroke-miterlimit:10;" d="M 0 0 L 1402 0 " transform="matrix(1,0,0,-1,1,1246.5)"/>
<path style="fill:none;stroke-width:0.5;stroke-linecap:butt;stroke-linejoin:miter;stroke:rgb(0%,0%,0%);stroke-opacity:1;stroke-miterlimit:10;" d="M 0 0 L 1402 0 " transform="matrix(1,0,0,-1,1,1298.5)"/>
<path style="fill:none;stroke-width:0.5;stroke-linecap:butt;stroke-linejoin:miter;stroke:rgb(0%,0%,0%);stroke-opacity:1;stroke-miterlimit:10;" d="M 0 0 L 1402 0 " transform="matrix(1,0,0,-1,1,1350.5)"/>
<path style="fill:none;stroke-width:0.5;stroke-linecap:butt;stroke-linejoin:miter;stroke:rgb(0%,0%,0%);stroke-opacity:1;stroke-miterlimit:10;" d="M 0 0 L 1402 0 " transform="matrix(1,0,0,-1,1,1402.5)"/>
<path style="fill:none;stroke-width:0.5;stroke-linecap:butt;stroke-linejoin:miter;stroke:rgb(0%,0%,0%);stroke-opacity:1;stroke-miterlimit:10;" d="M 0 0 L 1402 0 " transform="matrix(1,0,0,-1,1,1454.5)"/>
<path style="fill:none;stroke-width:0.5;stroke-linecap:butt;stroke-linejoin:miter;stroke:rgb(0%,0%,0%);stroke-opacity:1;stroke-miterlimit:10;" d="M 0 0 L 1402 0 " transform="matrix(1,0,0,-1,1,1506.5)"/>
<path style="fill:none;stroke-width:0.5;stroke-linecap:butt;stroke-linejoin:miter;stroke:rgb(0%,0%,0%);stroke-opacity:1;stroke-miterlimit:10;" d="M 0 0 L 1402 0 " transform="matrix(1,0,0,-1,1,1558.5)"/>
<path style="fill:none;stroke-width:0.5;stroke-linecap:butt;stroke-linejoin:miter;stroke:rgb(0%,0%,0%);stroke-opacity:1;stroke-miterlimit:10;" d="M 0 0 L 1402 0 " transform="matrix(1,0,0,-1,1,1610.5)"/>
<path style="fill:none;stroke-width:0.5;stroke-linecap:butt;stroke-linejoin:miter;stroke:rgb(0%,0%,0%);stroke-opacity:1;stroke-miterlimit:10;" d="M 0 0 L 1402 0 " transform="matrix(1,0,0,-1,1,1662.5)"/>
<path style="fill:none;stroke-width:0.5;stroke-linecap:butt;stroke-linejoin:miter;stroke:rgb(0%,0%,0%);stroke-opacity:1;stroke-miterlimit:10;" d="M 0 0 L 1402 0 " transform="matrix(1,0,0,-1,1,1714.5)"/>
<path style="fill:none;stroke-width:0.5;stroke-linecap:butt;stroke-linejoin:miter;stroke:rgb(0%,0%,0%);stroke-opacity:1;stroke-miterlimit:10;" d="M 0 0 L 1402 0 " transform="matrix(1,0,0,-1,1,1766.5)"/>
<path style="fill:none;stroke-width:0.5;stroke-linecap:butt;stroke-linejoin:miter;stroke:rgb(0%,0%,0%);stroke-opacity:1;stroke-miterlimit:10;" d="M 0 0 L 1402 0 " transform="matrix(1,0,0,-1,1,1818.5)"/>
<path style="fill:none;stroke-width:0.5;stroke-linecap:butt;stroke-linejoin:miter;stroke:rgb(0%,0%,0%);stroke-opacity:1;stroke-miterlimit:10;" d="M 0 0 L 1402 0 " transform="matrix(1,0,0,-1,1,1870.5)"/>
</g>
</svg>
